<?xml version="1.0" standalone="no"?>
<!DOCTYPE svg PUBLIC "-//W3C//DTD SVG 20010904//EN"
 "http://www.w3.org/TR/2001/REC-SVG-20010904/DTD/svg10.dtd">
<svg version="1.0" xmlns="http://www.w3.org/2000/svg"
 width="700.000000pt" height="700.000000pt" viewBox="0 0 700.000000 700.000000"
 preserveAspectRatio="xMidYMid meet">
<g transform="translate(0.000000,700.000000) scale(0.100000,-0.100000)"
fill="#000000" stroke="none">
<path d="M5175 6474 c-170 -47 -317 -87 -325 -89 -8 -1 -59 -15 -113 -30 -53
-14 -105 -28 -115 -30 -9 -2 -57 -15 -107 -29 -105 -29 -177 -48 -455 -123
-113 -30 -227 -61 -255 -68 -93 -25 -360 -97 -375 -100 -8 -2 -116 -32 -240
-65 -124 -34 -283 -77 -354 -95 -158 -42 -219 -70 -289 -138 -59 -56 -95 -113
-122 -192 -16 -46 -18 -165 -19 -1660 l-1 -1610 -22 -40 c-41 -77 -59 -87
-332 -181 -194 -68 -400 -139 -519 -180 -296 -103 -475 -413 -430 -744 23
-169 91 -309 209 -431 76 -78 135 -119 232 -164 64 -29 98 -39 197 -61 52 -11
208 -5 270 11 65 16 367 122 448 156 194 84 341 275 378 494 4 22 7 717 8
1545 1 1500 1 1505 22 1544 32 62 81 95 181 122 141 39 259 71 383 104 63 17
131 35 150 40 19 6 211 57 425 114 429 114 448 119 455 121 11 4 563 151 600
160 8 2 92 24 185 50 182 49 209 49 220 3 3 -13 4 -471 2 -1018 l-2 -995 -23
-40 c-35 -61 -81 -86 -287 -159 -104 -37 -226 -81 -270 -98 -44 -16 -100 -36
-125 -43 -75 -23 -181 -64 -250 -98 -91 -45 -223 -177 -273 -274 -107 -206
-106 -446 3 -668 107 -216 306 -368 540 -411 76 -14 215 -10 290 7 74 17 335
108 435 152 194 84 336 251 386 453 18 70 21 4508 4 4574 -42 160 -166 260
-330 266 -75 3 -101 -2 -390 -82z m295 -732 l0 -358 -55 1 c-63 1 -74 -2 -450
-102 -154 -41 -287 -76 -295 -78 -8 -2 -80 -21 -160 -43 -80 -22 -233 -63
-340 -91 -107 -28 -211 -56 -230 -61 -74 -21 -330 -90 -440 -119 -63 -16 -140
-37 -170 -45 -30 -8 -148 -40 -263 -70 -114 -31 -211 -56 -215 -56 -5 0 -8
152 -8 337 l1 337 45 12 c25 6 158 42 295 79 264 71 460 124 485 130 8 2 148
39 310 84 162 44 331 89 375 101 233 62 316 84 375 100 152 42 678 183 705
190 17 4 31 8 33 9 1 1 2 -160 2 -357z m0 -3656 c0 -261 -4 -294 -43 -349 -30
-44 -78 -68 -267 -137 -156 -57 -183 -64 -250 -64 -55 0 -87 5 -121 20 -205
94 -260 363 -102 497 17 15 748 284 776 286 4 1 7 -113 7 -253z m-3065 -673
c-1 -295 -2 -298 -66 -361 -23 -23 -75 -47 -193 -90 -88 -33 -183 -66 -211
-74 -156 -46 -331 48 -383 204 -39 119 -13 246 63 304 18 14 123 56 232 94
109 37 275 95 368 128 94 33 175 61 181 61 7 1 10 -80 9 -266z"/>
</g>
</svg>
